<?xml version="1.0" encoding="UTF-8"?>
<svg version="1.1" xmlns="http://www.w3.org/2000/svg" width="192" height="192">
<path d="M0 0 C1.15129395 -0.00945648 2.30258789 -0.01891296 3.48876953 -0.02865601 C5.3544458 -0.01954697 5.3544458 -0.01954697 7.2578125 -0.01025391 C8.53382324 -0.01312408 9.80983398 -0.01599426 11.12451172 -0.01895142 C13.82485366 -0.02099475 16.52438331 -0.01695032 19.22460938 -0.00292969 C22.6850048 0.0141627 26.14470221 0.00432052 29.60507202 -0.01364708 C32.90601056 -0.02709657 36.20686486 -0.01767885 39.5078125 -0.01025391 C40.75159668 -0.0163266 41.99538086 -0.02239929 43.27685547 -0.02865601 C44.42814941 -0.01919952 45.57944336 -0.00974304 46.765625 0 C47.78027832 0.00238678 48.79493164 0.00477356 49.84033203 0.00723267 C52.3828125 0.38818359 52.3828125 0.38818359 54.21044922 1.72494507 C56.03668961 4.31584281 55.767059 6.31421161 55.3828125 9.38818359 C54.3203125 11.26318359 54.3203125 11.26318359 52.3828125 12.38818359 C50.04991892 12.4334825 47.7156408 12.436728 45.3828125 12.38818359 C45.49417144 15.8679242 45.62443382 19.34672293 45.7578125 22.82568359 C45.78875 23.79957031 45.8196875 24.77345703 45.8515625 25.77685547 C45.89023438 26.74042969 45.92890625 27.70400391 45.96875 28.69677734 C46.0001709 29.57132568 46.0315918 30.44587402 46.06396484 31.34692383 C46.83513096 38.70252591 48.486075 44.45112174 52.6015625 50.60693359 C53.03537231 51.27801147 53.46918213 51.94908936 53.9161377 52.64050293 C55.38760301 54.90174715 56.88223014 57.14616443 58.3828125 59.38818359 C58.92873047 60.20722168 59.47464844 61.02625977 60.03710938 61.87011719 C64.28569497 68.23214504 68.58013453 74.56266241 72.8828125 80.88818359 C87.12602213 101.82763686 87.12602213 101.82763686 93.2265625 111.54443359 C93.63942505 112.19972046 94.0522876 112.85500732 94.47766113 113.53015137 C98.02031304 119.2401177 99.31779929 123.62910084 97.9921875 130.37646484 C96.18747638 136.33432528 92.42363007 139.88196976 87.3828125 143.38818359 C84.43109362 144.37208989 82.50843209 144.51832889 79.43083191 144.52862549 C77.89786217 144.5371907 77.89786217 144.5371907 76.33392334 144.54592896 C75.21334534 144.54704681 74.09276733 144.54816467 72.93823242 144.54931641 C71.75749649 144.55428131 70.57676056 144.55924622 69.36024475 144.56436157 C66.12044759 144.57647007 62.88068651 144.5839284 59.64087081 144.58837223 C57.61578007 144.59130497 55.59069497 144.59541018 53.56560707 144.5998764 C47.22671732 144.61354881 40.88784049 144.62321653 34.54893702 144.62707829 C27.23697019 144.63155758 19.92519043 144.64910039 12.61328048 144.67807889 C6.95796744 144.69971223 1.30270696 144.70978346 -4.35264701 144.71111941 C-7.72870464 144.71216633 -11.10458637 144.71804969 -14.48060036 144.73593903 C-18.24868598 144.75297775 -22.0163154 144.75112424 -25.78442383 144.74462891 C-26.89892914 144.75384369 -28.01343445 144.76305847 -29.16171265 144.77255249 C-35.70176909 144.73720584 -40.1501956 144.09954905 -45.4453125 139.95849609 C-49.78875529 135.5434581 -51.65113627 132.07854434 -52.1796875 125.82568359 C-51.6467749 112.53332063 -37.72896684 98.01892782 -30.4921875 87.38818359 C-23.02165963 76.39677354 -15.56949031 65.39723802 -8.3125 54.26318359 C-7.76665253 53.42779053 -7.22080505 52.59239746 -6.65841675 51.73168945 C-6.15512848 50.95575439 -5.65184021 50.17981934 -5.13330078 49.38037109 C-4.69382111 48.70345215 -4.25434143 48.0265332 -3.80154419 47.32910156 C0.8335672 39.73310362 0.60082247 31.63070282 0.9453125 22.95068359 C1.01008789 21.42411133 1.01008789 21.42411133 1.07617188 19.86669922 C1.18149832 17.37397331 1.28362922 14.88116021 1.3828125 12.38818359 C0.26777344 12.41138672 -0.84726563 12.43458984 -1.99609375 12.45849609 C-5.6171875 12.38818359 -5.6171875 12.38818359 -7.5546875 11.26318359 C-9.12140995 8.49837926 -9.00695185 6.50629842 -8.6171875 3.38818359 C-6.21694368 -0.01705611 -4.00762596 0.00942718 0 0 Z M13.3828125 12.38818359 C13.34542969 14.44939453 13.30804688 16.51060547 13.26953125 18.63427734 C13.22080406 20.65993632 13.17197316 22.68559411 13.12036133 24.71118164 C13.08737942 26.10462722 13.05926683 27.49819782 13.03637695 28.8918457 C12.81373254 42.09418598 10.60480694 50.31083603 3.0703125 61.13818359 C2.4623584 62.03633789 1.8544043 62.93449219 1.22802734 63.85986328 C-2.01470719 68.64537097 -5.31753749 73.38525598 -8.65234375 78.10693359 C-9.29582764 79.0340918 -9.93931152 79.96125 -10.60229492 80.91650391 C-11.83306673 82.68896795 -13.08119239 84.44954654 -14.34887695 86.19580078 C-17.69703975 91.04257333 -19.29551984 94.52721696 -19.05834961 100.46923828 C-18.28691524 103.82478566 -16.29020146 105.3989639 -13.6171875 107.38818359 C-6.31965566 109.82069421 -1.14755806 108.60281947 5.5703125 105.26318359 C13.50460526 101.18772904 20.980572 96.33138343 28.4050293 91.40136719 C36.52909906 86.06305582 44.90099646 81.70596085 54.3828125 79.38818359 C53.74238403 75.76626904 52.20049063 73.34125926 50.14453125 70.31787109 C49.48904297 69.33818359 48.83355469 68.35849609 48.15820312 67.34912109 C46.78083249 65.3133441 45.400682 63.27944478 44.01757812 61.24755859 C36.23844973 49.59787659 33.77532546 40.6996258 33.6328125 26.76318359 C33.60458991 25.36340816 33.57465394 23.96366618 33.54296875 22.56396484 C33.47279727 19.17234351 33.42548016 15.78026243 33.3828125 12.38818359 C26.7828125 12.38818359 20.1828125 12.38818359 13.3828125 12.38818359 Z " fill="#5F6268" transform="translate(72.6171875,23.61181640625)"/>
</svg>
